<svg xmlns="http://www.w3.org/2000/svg" id="canvas" viewBox="293.712 371.381 1178.198 200">
    <style>
        path {
        stroke-dasharray: 2000;
        stroke-dashoffset: 2000;
        -webkit-animation: dash 5s ease infinite;
        animation: dash 5s ease infinite;
        stroke-width:7px;
        }

        @-webkit-keyframes dash {
        0% {
        stroke: none;
        }
        50% {
        stroke: orange;
        }
        100% {
        stroke: pink;
        }
        to {
        stroke-dashoffset: 0;
        }
        }
        @keyframes dash {
        0% {
        stroke: #FFFFFF00;
        }
        50% {
        stroke: green;
        }
        100% {
        stroke: red;
        }
        to {
        stroke-dashoffset: 0;
        }
        }
    </style>
    <g>
        <path
            d="M 327.01,409.32 C 326.39 409.87, 326.20 410.60, 325.84 412.07 C 325.48 413.54, 325.36 414.52, 325.20 416.67 C 325.03 418.82, 325.04 420.17, 325.04 422.82 C 325.03 425.47, 325.12 426.93, 325.16 429.92 C 325.21 432.91, 325.22 434.50, 325.26 437.77 C 325.30 441.05, 325.30 442.81, 325.36 446.29 C 325.42 449.78, 325.44 451.64, 325.56 455.21 C 325.67 458.79, 325.75 460.63, 325.93 464.18 C 326.11 467.73, 326.22 469.56, 326.45 472.96 C 326.68 476.37, 326.82 478.06, 327.07 481.22 C 327.33 484.38, 327.41 485.94, 327.73 488.77 C 328.05 491.61, 328.29 493.00, 328.69 495.39 C 329.09 497.77, 329.31 498.93, 329.73 500.72 C 330.16 502.50, 330.37 503.22, 330.80 504.32 C 331.23 505.42, 331.41 505.85, 331.88 506.20 C 332.35 506.55, 332.75 506.52, 333.15 506.08 C 333.55 505.64, 333.70 505.18, 333.87 503.98 C 334.04 502.77, 334.16 501.92, 334.02 500.06 C 333.88 498.20, 333.53 497.05, 333.18 494.68 C 332.83 492.30, 332.65 490.97, 332.26 488.20 C 331.87 485.42, 331.60 483.91, 331.22 480.80 C 330.84 477.69, 330.67 476.03, 330.38 472.66 C 330.09 469.30, 329.97 467.49, 329.78 463.98 C 329.60 460.47, 329.53 458.65, 329.45 455.11 C 329.38 451.57, 329.38 449.73, 329.41 446.28 C 329.44 442.82, 329.47 441.08, 329.60 437.83 C 329.73 434.59, 329.84 433.02, 330.04 430.04 C 330.24 427.07, 330.46 425.62, 330.59 422.96 C 330.72 420.31, 330.77 418.94, 330.69 416.77 C 330.60 414.59, 330.50 413.59, 330.16 412.10 C 329.81 410.61, 329.59 409.87, 328.96 409.31 C 328.33 408.76, 327.63 408.77, 327.01 409.32"
            fill="none" />
        <path
            d="M 288.36,412.25 C 288.83 412.71, 289.16 412.67, 290.25 412.82 C 291.33 412.97, 291.92 413.07, 293.79 412.99 C 295.65 412.91, 296.88 412.81, 299.58 412.43 C 302.28 412.05, 303.84 411.60, 307.27 411.08 C 310.71 410.55, 312.70 410.28, 316.77 409.79 C 320.83 409.30, 323.07 409.05, 327.59 408.61 C 332.11 408.16, 334.60 407.93, 339.36 407.57 C 344.13 407.21, 346.66 407.06, 351.42 406.81 C 356.19 406.55, 358.67 406.43, 363.19 406.30 C 367.72 406.17, 369.98 406.13, 374.05 406.15 C 378.12 406.17, 380.07 406.22, 383.53 406.42 C 387.00 406.61, 388.77 406.92, 391.35 407.13 C 393.94 407.35, 394.87 407.45, 396.45 407.50 C 398.04 407.56, 398.46 407.45, 399.29 407.39 C 400.11 407.33, 400.26 407.41, 400.58 407.19 C 400.91 406.96, 401.07 406.68, 400.92 406.28 C 400.77 405.88, 400.62 405.66, 399.84 405.19 C 399.06 404.72, 398.65 404.42, 397.03 403.95 C 395.41 403.48, 394.41 403.08, 391.73 402.84 C 389.05 402.60, 387.17 402.72, 383.62 402.75 C 380.08 402.77, 378.12 402.84, 374.01 402.96 C 369.90 403.08, 367.63 403.14, 363.09 403.33 C 358.54 403.52, 356.06 403.66, 351.27 403.91 C 346.48 404.17, 343.95 404.31, 339.16 404.61 C 334.37 404.91, 331.87 405.11, 327.33 405.42 C 322.78 405.74, 320.53 405.93, 316.44 406.18 C 312.35 406.43, 310.36 406.56, 306.86 406.68 C 303.37 406.80, 301.75 406.58, 298.98 406.77 C 296.22 406.96, 294.95 407.19, 293.05 407.63 C 291.15 408.07, 290.50 408.39, 289.47 408.97 C 288.43 409.55, 288.09 409.87, 287.87 410.53 C 287.65 411.18, 287.88 411.79, 288.36 412.25"
            fill="none" />
        <path
            d="M 416.06,458.08 C 416.01 457.28, 415.58 456.59, 414.64 455.78 C 413.71 454.97, 412.98 454.53, 411.39 454.03 C 409.81 453.53, 408.72 453.33, 406.72 453.27 C 404.72 453.21, 403.65 453.36, 401.39 453.72 C 399.13 454.09, 397.89 454.33, 395.43 455.10 C 392.97 455.86, 391.61 456.36, 389.10 457.54 C 386.60 458.72, 385.28 459.43, 382.89 460.99 C 380.50 462.55, 379.26 463.45, 377.16 465.33 C 375.06 467.22, 374.02 468.27, 372.40 470.40 C 370.78 472.53, 370.01 473.69, 369.05 475.99 C 368.08 478.29, 367.71 479.56, 367.57 481.90 C 367.42 484.25, 367.55 485.50, 368.32 487.71 C 369.10 489.92, 369.75 491.09, 371.45 492.94 C 373.15 494.80, 374.30 495.70, 376.81 496.99 C 379.31 498.28, 380.86 498.76, 383.99 499.40 C 387.13 500.04, 388.97 500.16, 392.48 500.20 C 395.99 500.23, 397.94 500.07, 401.55 499.57 C 405.16 499.07, 407.02 498.66, 410.53 497.70 C 414.04 496.74, 415.90 496.12, 419.10 494.77 C 422.30 493.43, 423.89 492.68, 426.53 490.98 C 429.17 489.28, 430.36 488.31, 432.30 486.27 C 434.25 484.24, 435.12 483.06, 436.25 480.80 C 437.39 478.54, 437.73 477.31, 437.98 474.98 C 438.23 472.65, 438.10 471.38, 437.51 469.15 C 436.92 466.93, 436.39 465.80, 435.05 463.84 C 433.71 461.87, 432.72 460.90, 430.80 459.32 C 428.88 457.75, 427.69 457.06, 425.45 455.96 C 423.21 454.85, 421.91 454.41, 419.58 453.78 C 417.26 453.16, 415.94 452.89, 413.83 452.85 C 411.72 452.80, 410.56 453.09, 409.05 453.54 C 407.55 453.99, 406.80 454.46, 406.30 455.09 C 405.80 455.72, 405.95 456.23, 406.57 456.67 C 407.19 457.10, 408.01 457.08, 409.38 457.27 C 410.76 457.47, 411.68 457.38, 413.46 457.63 C 415.24 457.88, 416.32 457.97, 418.28 458.52 C 420.23 459.08, 421.36 459.49, 423.25 460.42 C 425.14 461.35, 426.12 461.94, 427.72 463.18 C 429.33 464.41, 430.14 465.14, 431.26 466.58 C 432.37 468.01, 432.80 468.76, 433.30 470.35 C 433.80 471.94, 433.94 472.84, 433.77 474.54 C 433.60 476.24, 433.39 477.10, 432.46 478.84 C 431.53 480.57, 430.79 481.51, 429.13 483.21 C 427.46 484.92, 426.48 485.81, 424.16 487.38 C 421.83 488.95, 420.43 489.76, 417.50 491.07 C 414.57 492.38, 412.79 493.01, 409.50 493.91 C 406.20 494.82, 404.41 495.19, 401.04 495.58 C 397.66 495.98, 395.82 496.05, 392.61 495.88 C 389.41 495.71, 387.74 495.39, 385.02 494.73 C 382.30 494.08, 381.05 493.61, 378.99 492.62 C 376.94 491.63, 376.06 491.05, 374.74 489.77 C 373.42 488.49, 372.95 487.75, 372.38 486.24 C 371.80 484.73, 371.71 483.91, 371.87 482.22 C 372.02 480.54, 372.32 479.60, 373.16 477.81 C 374.01 476.03, 374.66 475.07, 376.10 473.31 C 377.54 471.54, 378.48 470.62, 380.38 469.00 C 382.27 467.38, 383.41 466.56, 385.58 465.20 C 387.76 463.84, 388.98 463.23, 391.25 462.20 C 393.53 461.16, 394.77 460.72, 396.96 460.05 C 399.15 459.37, 400.28 459.12, 402.19 458.83 C 404.11 458.54, 404.96 458.53, 406.54 458.59 C 408.12 458.64, 408.87 458.91, 410.10 459.12 C 411.33 459.33, 411.75 459.51, 412.71 459.65 C 413.67 459.78, 414.22 460.11, 414.89 459.80 C 415.56 459.48, 416.10 458.88, 416.06 458.08"
            fill="none" />
        <path
            d="M 479.16,461.13 C 479.27 460.32, 478.97 459.52, 478.21 458.50 C 477.44 457.48, 476.79 456.89, 475.34 456.04 C 473.89 455.20, 472.85 454.73, 470.94 454.27 C 469.03 453.81, 467.97 453.77, 465.79 453.74 C 463.61 453.72, 462.43 453.77, 460.05 454.13 C 457.67 454.48, 456.36 454.74, 453.89 455.52 C 451.41 456.30, 450.07 456.83, 447.66 458.04 C 445.25 459.25, 444.00 459.97, 441.85 461.57 C 439.69 463.17, 438.60 464.10, 436.90 466.04 C 435.19 467.97, 434.39 469.05, 433.32 471.24 C 432.24 473.43, 431.82 474.65, 431.51 476.97 C 431.20 479.30, 431.20 480.58, 431.77 482.86 C 432.35 485.14, 432.91 486.36, 434.40 488.39 C 435.89 490.42, 436.92 491.45, 439.21 493.02 C 441.51 494.60, 442.96 495.29, 445.89 496.26 C 448.82 497.23, 450.57 497.50, 453.87 497.86 C 457.18 498.23, 459.00 498.24, 462.42 498.08 C 465.84 497.92, 467.68 497.69, 470.98 497.06 C 474.28 496.43, 475.96 496.02, 478.93 494.94 C 481.89 493.86, 483.38 493.19, 485.80 491.68 C 488.21 490.16, 489.27 489.26, 490.99 487.36 C 492.70 485.46, 493.41 484.34, 494.37 482.19 C 495.34 480.03, 495.65 478.85, 495.80 476.58 C 495.95 474.31, 495.73 473.03, 495.12 470.84 C 494.52 468.65, 493.97 467.55, 492.76 465.61 C 491.55 463.66, 490.69 462.72, 489.06 461.12 C 487.44 459.51, 486.41 458.79, 484.63 457.59 C 482.84 456.39, 481.83 455.83, 480.12 455.11 C 478.41 454.38, 477.44 454.17, 476.09 453.97 C 474.73 453.78, 474.00 453.80, 473.34 454.12 C 472.69 454.44, 472.54 454.93, 472.81 455.59 C 473.08 456.25, 473.67 456.66, 474.70 457.42 C 475.73 458.19, 476.53 458.57, 477.97 459.41 C 479.41 460.26, 480.34 460.61, 481.88 461.65 C 483.42 462.70, 484.28 463.32, 485.65 464.63 C 487.02 465.94, 487.73 466.69, 488.74 468.20 C 489.75 469.70, 490.18 470.53, 490.71 472.16 C 491.25 473.79, 491.47 474.70, 491.42 476.36 C 491.38 478.01, 491.20 478.83, 490.48 480.44 C 489.75 482.05, 489.22 482.94, 487.81 484.42 C 486.40 485.90, 485.50 486.57, 483.42 487.85 C 481.33 489.12, 480.04 489.78, 477.39 490.79 C 474.74 491.79, 473.20 492.28, 470.17 492.88 C 467.14 493.48, 465.39 493.69, 462.25 493.78 C 459.10 493.88, 457.40 493.81, 454.45 493.37 C 451.50 492.93, 449.99 492.47, 447.48 491.58 C 444.98 490.70, 443.80 490.15, 441.92 488.95 C 440.04 487.75, 439.25 487.02, 438.07 485.57 C 436.89 484.13, 436.48 483.34, 436.03 481.74 C 435.59 480.14, 435.61 479.28, 435.87 477.59 C 436.13 475.91, 436.45 474.98, 437.35 473.31 C 438.25 471.63, 438.91 470.76, 440.38 469.21 C 441.85 467.65, 442.81 466.86, 444.71 465.53 C 446.61 464.19, 447.74 463.56, 449.88 462.53 C 452.02 461.50, 453.22 461.06, 455.41 460.38 C 457.59 459.71, 458.75 459.47, 460.81 459.16 C 462.87 458.84, 463.94 458.77, 465.71 458.81 C 467.48 458.84, 468.22 458.96, 469.65 459.35 C 471.09 459.74, 471.73 460.24, 472.89 460.75 C 474.05 461.26, 474.50 461.56, 475.45 461.92 C 476.41 462.29, 476.92 462.74, 477.66 462.58 C 478.40 462.42, 479.05 461.95, 479.16 461.13"
            fill="none" />
        <path
            d="M 505.09,415.42 C 504.40 416.05, 504.12 417.05, 503.70 418.69 C 503.29 420.32, 503.18 421.38, 503.02 423.57 C 502.87 425.75, 502.92 427.12, 502.95 429.63 C 502.98 432.13, 503.03 433.38, 503.16 436.11 C 503.29 438.85, 503.37 440.30, 503.58 443.30 C 503.79 446.29, 503.91 447.91, 504.21 451.09 C 504.50 454.27, 504.67 455.97, 505.06 459.18 C 505.45 462.39, 505.68 464.03, 506.15 467.15 C 506.62 470.28, 506.86 471.85, 507.43 474.81 C 508.00 477.76, 508.29 479.25, 508.99 481.92 C 509.68 484.60, 510.09 485.87, 510.91 488.18 C 511.73 490.48, 512.17 491.56, 513.08 493.44 C 514.00 495.31, 514.47 496.22, 515.48 497.56 C 516.50 498.89, 517.21 499.44, 518.16 500.13 C 519.10 500.82, 519.47 500.87, 520.22 500.99 C 520.97 501.11, 521.28 501.04, 521.90 500.74 C 522.52 500.44, 523.12 499.97, 523.32 499.50 C 523.53 499.03, 523.52 498.47, 522.92 498.39 C 522.33 498.31, 520.87 498.91, 520.36 499.12 C 519.85 499.33, 520.17 499.45, 520.36 499.44 C 520.56 499.44, 521.10 499.26, 521.33 499.10 C 521.57 498.93, 521.63 498.97, 521.53 498.62 C 521.42 498.27, 521.32 498.06, 520.81 497.36 C 520.30 496.65, 519.73 496.24, 518.98 495.08 C 518.23 493.92, 517.81 493.25, 517.05 491.57 C 516.29 489.90, 515.91 488.87, 515.20 486.71 C 514.49 484.54, 514.17 483.30, 513.49 480.74 C 512.82 478.18, 512.44 476.76, 511.82 473.91 C 511.21 471.06, 510.91 469.53, 510.42 466.48 C 509.93 463.44, 509.71 461.83, 509.36 458.68 C 509.01 455.53, 508.88 453.85, 508.66 450.73 C 508.45 447.60, 508.39 446.00, 508.30 443.05 C 508.20 440.11, 508.18 438.67, 508.18 435.99 C 508.18 433.31, 508.23 432.10, 508.28 429.65 C 508.33 427.20, 508.46 425.87, 508.43 423.72 C 508.40 421.57, 508.41 420.54, 508.16 418.90 C 507.90 417.26, 507.77 416.23, 507.15 415.53 C 506.54 414.84, 505.78 414.79, 505.09 415.42"
            fill="none" />
        <path
            d="M 545.97,417.43 C 545.34 417.85, 545.14 418.42, 544.75 419.60 C 544.37 420.78, 544.22 421.53, 544.03 423.33 C 543.85 425.14, 543.87 426.30, 543.82 428.62 C 543.77 430.94, 543.78 432.24, 543.77 434.92 C 543.76 437.61, 543.75 439.09, 543.76 442.05 C 543.78 445.01, 543.79 446.58, 543.83 449.74 C 543.88 452.89, 543.89 454.57, 543.98 457.81 C 544.07 461.06, 544.12 462.74, 544.30 465.96 C 544.48 469.19, 544.58 470.84, 544.87 473.94 C 545.15 477.04, 545.29 478.60, 545.73 481.45 C 546.17 484.30, 546.45 485.68, 547.06 488.19 C 547.67 490.70, 548.02 491.91, 548.80 493.99 C 549.58 496.07, 550.03 497.07, 550.95 498.59 C 551.88 500.10, 552.48 500.77, 553.40 501.56 C 554.33 502.34, 554.91 502.38, 555.59 502.50 C 556.26 502.63, 556.50 502.40, 556.78 502.18 C 557.06 501.96, 556.98 501.70, 557.00 501.41 C 557.03 501.11, 557.03 501.17, 556.90 500.71 C 556.76 500.25, 556.78 499.94, 556.34 499.09 C 555.90 498.25, 555.37 497.80, 554.70 496.48 C 554.02 495.16, 553.62 494.36, 552.98 492.49 C 552.34 490.63, 552.05 489.49, 551.51 487.14 C 550.98 484.78, 550.77 483.44, 550.31 480.71 C 549.86 477.98, 549.57 476.48, 549.22 473.49 C 548.87 470.49, 548.75 468.87, 548.56 465.72 C 548.38 462.57, 548.33 460.91, 548.28 457.72 C 548.24 454.53, 548.26 452.86, 548.32 449.75 C 548.39 446.64, 548.47 445.10, 548.62 442.16 C 548.77 439.23, 548.92 437.77, 549.08 435.09 C 549.24 432.42, 549.35 431.11, 549.43 428.78 C 549.51 426.46, 549.58 425.29, 549.49 423.47 C 549.39 421.66, 549.28 420.92, 548.97 419.73 C 548.65 418.53, 548.50 417.95, 547.90 417.49 C 547.30 417.03, 546.60 417.00, 545.97 417.43"
            fill="none" />
        <path
            d="M 591.79,426.97 C 591.10 427.03, 590.78 427.35, 590.05 428.08 C 589.32 428.81, 588.91 429.29, 588.13 430.60 C 587.35 431.92, 586.99 432.84, 586.14 434.65 C 585.29 436.45, 584.87 437.52, 583.89 439.62 C 582.91 441.73, 582.34 442.88, 581.25 445.18 C 580.16 447.47, 579.50 448.68, 578.44 451.09 C 577.38 453.50, 576.82 454.79, 575.95 457.23 C 575.08 459.66, 574.67 460.89, 574.08 463.27 C 573.49 465.64, 573.21 466.83, 573.01 469.11 C 572.81 471.39, 572.81 472.54, 573.07 474.66 C 573.34 476.78, 573.58 477.81, 574.35 479.72 C 575.12 481.63, 575.62 482.56, 576.91 484.19 C 578.20 485.83, 579.00 486.62, 580.81 487.90 C 582.62 489.17, 583.69 489.73, 585.95 490.56 C 588.21 491.40, 589.49 491.67, 592.10 492.08 C 594.72 492.48, 596.14 492.61, 599.02 492.58 C 601.91 492.56, 603.51 492.36, 606.54 491.96 C 609.56 491.55, 611.13 491.22, 614.14 490.55 C 617.15 489.88, 618.73 489.48, 621.60 488.60 C 624.47 487.72, 625.92 487.23, 628.50 486.16 C 631.07 485.09, 632.30 484.45, 634.48 483.23 C 636.67 482.01, 637.68 481.37, 639.42 480.06 C 641.16 478.75, 641.97 478.09, 643.20 476.69 C 644.42 475.29, 644.94 474.35, 645.55 473.04 C 646.15 471.73, 646.13 471.13, 646.22 470.13 C 646.32 469.14, 646.24 468.69, 646.01 468.05 C 645.77 467.41, 645.53 467.08, 645.05 466.93 C 644.57 466.77, 643.99 467.04, 643.61 467.30 C 643.24 467.56, 643.35 467.81, 643.18 468.22 C 643.01 468.64, 643.01 468.81, 642.76 469.39 C 642.51 469.97, 642.50 470.24, 641.94 471.12 C 641.38 471.99, 640.98 472.68, 639.96 473.76 C 638.93 474.84, 638.35 475.43, 636.82 476.52 C 635.29 477.61, 634.33 478.16, 632.31 479.22 C 630.29 480.27, 629.12 480.81, 626.70 481.80 C 624.28 482.78, 622.93 483.30, 620.22 484.15 C 617.52 484.99, 616.01 485.41, 613.15 486.02 C 610.30 486.62, 608.79 486.88, 605.96 487.18 C 603.14 487.48, 601.64 487.51, 599.01 487.50 C 596.38 487.49, 595.11 487.44, 592.82 487.14 C 590.53 486.83, 589.45 486.59, 587.57 485.97 C 585.70 485.34, 584.88 484.94, 583.44 484.01 C 582.01 483.09, 581.41 482.54, 580.41 481.35 C 579.40 480.16, 579.01 479.51, 578.42 478.07 C 577.84 476.63, 577.66 475.85, 577.48 474.15 C 577.30 472.45, 577.31 471.51, 577.53 469.57 C 577.76 467.63, 578.02 466.58, 578.61 464.45 C 579.21 462.32, 579.62 461.18, 580.50 458.92 C 581.38 456.67, 581.93 455.46, 583.01 453.17 C 584.09 450.88, 584.74 449.70, 585.89 447.46 C 587.03 445.23, 587.65 444.08, 588.73 442.00 C 589.81 439.93, 590.40 438.90, 591.27 437.08 C 592.14 435.26, 592.57 434.36, 593.08 432.92 C 593.59 431.47, 593.73 430.87, 593.82 429.84 C 593.91 428.80, 593.93 428.32, 593.52 427.75 C 593.12 427.17, 592.49 426.90, 591.79 426.97"
            fill="none" />
        <path
            d="M 647.59,453.60 C 646.99 453.95, 646.89 454.36, 646.51 455.25 C 646.14 456.14, 645.94 456.67, 645.72 458.04 C 645.50 459.41, 645.50 460.35, 645.43 462.10 C 645.36 463.86, 645.39 464.85, 645.37 466.82 C 645.36 468.80, 645.33 469.88, 645.35 471.96 C 645.37 474.05, 645.38 475.17, 645.47 477.25 C 645.56 479.32, 645.62 480.42, 645.80 482.34 C 645.98 484.25, 646.08 485.24, 646.36 486.81 C 646.64 488.39, 646.84 489.16, 647.19 490.21 C 647.54 491.25, 647.69 491.57, 648.11 492.03 C 648.53 492.49, 648.94 492.47, 649.29 492.51 C 649.63 492.56, 649.81 492.28, 649.85 492.25 C 649.89 492.21, 649.44 492.32, 649.49 492.34 C 649.55 492.36, 649.82 492.52, 650.12 492.35 C 650.43 492.18, 650.79 492.04, 651.02 491.48 C 651.24 490.91, 651.25 490.57, 651.25 489.52 C 651.24 488.46, 651.10 487.73, 650.98 486.22 C 650.86 484.71, 650.74 483.80, 650.64 481.97 C 650.54 480.15, 650.50 479.09, 650.46 477.09 C 650.42 475.09, 650.40 474.01, 650.45 471.99 C 650.49 469.98, 650.55 468.94, 650.67 467.01 C 650.80 465.09, 650.97 464.12, 651.07 462.38 C 651.17 460.65, 651.26 459.75, 651.19 458.35 C 651.13 456.94, 651.08 456.32, 650.75 455.35 C 650.42 454.39, 650.17 453.88, 649.54 453.53 C 648.91 453.18, 648.20 453.26, 647.59 453.60"
            fill="none" />
        <path
            d="M 642.15,424.56 C 642.88 424.74, 643.36 424.50, 643.68 424.36 C 644.00 424.23, 643.80 424.21, 643.76 423.88 C 643.72 423.56, 643.78 423.33, 643.48 422.72 C 643.19 422.12, 642.88 421.26, 642.28 420.85 C 641.67 420.44, 641.04 420.46, 640.47 420.67 C 639.91 420.88, 639.53 421.34, 639.45 421.90 C 639.37 422.46, 639.52 422.93, 640.06 423.46 C 640.60 423.99, 641.43 424.38, 642.15 424.56"
            fill="none" />
        <path
            d="M 682.44,416.77 C 681.81 417.12, 681.56 417.57, 681.14 418.69 C 680.71 419.80, 680.51 420.57, 680.32 422.36 C 680.14 424.14, 680.20 425.31, 680.23 427.60 C 680.25 429.89, 680.36 431.18, 680.46 433.81 C 680.56 436.45, 680.58 437.87, 680.72 440.77 C 680.86 443.68, 680.96 445.24, 681.16 448.32 C 681.37 451.40, 681.49 453.02, 681.76 456.17 C 682.02 459.32, 682.16 460.94, 682.49 464.05 C 682.82 467.16, 683.02 468.76, 683.43 471.72 C 683.83 474.68, 684.04 476.17, 684.51 478.86 C 684.98 481.55, 685.23 482.88, 685.78 485.18 C 686.33 487.47, 686.66 488.72, 687.26 490.33 C 687.86 491.93, 688.24 492.37, 688.77 493.21 C 689.30 494.04, 689.46 494.30, 689.90 494.51 C 690.35 494.72, 690.67 494.66, 690.98 494.27 C 691.29 493.88, 691.35 493.56, 691.44 492.56 C 691.52 491.57, 691.64 490.98, 691.42 489.30 C 691.21 487.62, 690.82 486.42, 690.36 484.16 C 689.90 481.91, 689.61 480.64, 689.12 478.02 C 688.63 475.40, 688.36 473.96, 687.91 471.07 C 687.46 468.18, 687.21 466.62, 686.86 463.57 C 686.51 460.52, 686.39 458.92, 686.17 455.83 C 685.94 452.73, 685.85 451.13, 685.76 448.09 C 685.66 445.06, 685.68 443.52, 685.69 440.65 C 685.69 437.79, 685.72 436.37, 685.77 433.76 C 685.81 431.15, 685.88 429.86, 685.91 427.60 C 685.93 425.34, 686.00 424.20, 685.88 422.45 C 685.76 420.71, 685.63 419.99, 685.31 418.88 C 684.99 417.77, 684.86 417.32, 684.29 416.90 C 683.71 416.48, 683.07 416.41, 682.44 416.77"
            fill="none" />
        <path
            d="M 671.20,463.41 C 671.85 463.77, 672.37 463.57, 673.66 463.51 C 674.96 463.46, 675.71 463.38, 677.68 463.15 C 679.64 462.91, 680.91 462.66, 683.48 462.34 C 686.04 462.02, 687.53 461.80, 690.52 461.55 C 693.52 461.29, 695.49 461.33, 698.45 461.08 C 701.41 460.83, 703.02 460.72, 705.33 460.29 C 707.63 459.87, 709.05 459.57, 709.97 458.96 C 710.89 458.35, 710.89 457.81, 709.93 457.25 C 708.97 456.69, 707.52 456.40, 705.17 456.16 C 702.82 455.91, 701.19 455.97, 698.19 456.02 C 695.20 456.07, 693.26 456.28, 690.19 456.42 C 687.12 456.56, 685.57 456.44, 682.85 456.71 C 680.13 456.98, 678.71 457.19, 676.61 457.75 C 674.51 458.32, 673.59 458.75, 672.35 459.54 C 671.11 460.33, 670.63 460.91, 670.40 461.68 C 670.17 462.45, 670.54 463.04, 671.20 463.41"
            fill="none" />
        <path
            d="M 755.24,452.57 C 755.16 451.79, 754.78 451.14, 753.81 450.34 C 752.84 449.54, 752.06 449.09, 750.38 448.56 C 748.71 448.04, 747.55 447.82, 745.43 447.72 C 743.32 447.62, 742.11 447.79, 739.81 448.06 C 737.51 448.32, 736.23 448.54, 733.94 449.06 C 731.65 449.58, 730.42 449.91, 728.36 450.66 C 726.30 451.41, 725.25 451.83, 723.63 452.80 C 722.00 453.77, 721.22 454.29, 720.24 455.52 C 719.26 456.75, 718.88 457.51, 718.73 458.95 C 718.58 460.39, 718.72 461.29, 719.51 462.73 C 720.30 464.16, 721.00 464.88, 722.68 466.14 C 724.35 467.40, 725.46 467.96, 727.88 469.01 C 730.30 470.05, 731.81 470.43, 734.76 471.38 C 737.71 472.32, 739.43 472.72, 742.63 473.74 C 745.83 474.76, 747.59 475.32, 750.76 476.49 C 753.94 477.66, 755.63 478.31, 758.52 479.60 C 761.40 480.88, 762.78 481.65, 765.18 482.92 C 767.57 484.19, 768.72 484.79, 770.49 485.95 C 772.26 487.12, 773.00 487.73, 774.03 488.74 C 775.06 489.75, 775.34 490.20, 775.64 490.99 C 775.93 491.79, 775.87 492.07, 775.50 492.70 C 775.12 493.32, 774.79 493.55, 773.77 494.11 C 772.75 494.68, 772.08 494.99, 770.39 495.54 C 768.69 496.09, 767.62 496.40, 765.29 496.88 C 762.95 497.37, 761.56 497.64, 758.70 497.96 C 755.83 498.29, 754.18 498.43, 750.96 498.51 C 747.73 498.59, 745.92 498.55, 742.58 498.38 C 739.24 498.22, 737.46 498.08, 734.27 497.67 C 731.09 497.27, 729.45 496.92, 726.65 496.38 C 723.85 495.83, 722.50 495.48, 720.28 494.93 C 718.05 494.38, 717.12 494.13, 715.53 493.62 C 713.95 493.11, 713.17 492.37, 712.33 492.39 C 711.50 492.41, 711.03 492.83, 711.35 493.71 C 711.66 494.59, 712.37 495.68, 713.90 496.78 C 715.43 497.89, 716.63 498.41, 719.01 499.22 C 721.40 500.03, 722.86 500.29, 725.82 500.82 C 728.77 501.35, 730.48 501.51, 733.79 501.86 C 737.09 502.21, 738.91 502.36, 742.34 502.57 C 745.78 502.79, 747.61 502.88, 750.97 502.95 C 754.32 503.02, 756.03 503.09, 759.11 502.93 C 762.18 502.76, 763.71 502.64, 766.34 502.13 C 768.97 501.61, 770.22 501.24, 772.25 500.35 C 774.29 499.45, 775.20 498.91, 776.52 497.65 C 777.85 496.40, 778.37 495.58, 778.86 494.06 C 779.36 492.54, 779.38 491.64, 779.00 490.05 C 778.63 488.46, 778.20 487.66, 777.00 486.13 C 775.80 484.60, 774.95 483.86, 773.02 482.40 C 771.08 480.94, 769.90 480.17, 767.33 478.83 C 764.77 477.49, 763.21 476.95, 760.19 475.70 C 757.17 474.45, 755.45 473.80, 752.23 472.58 C 749.00 471.36, 747.22 470.76, 744.07 469.58 C 740.92 468.40, 739.26 467.79, 736.46 466.66 C 733.67 465.53, 732.31 464.91, 730.10 463.93 C 727.89 462.96, 726.91 462.51, 725.42 461.78 C 723.94 461.05, 723.39 460.77, 722.68 460.27 C 721.98 459.77, 721.84 459.69, 721.89 459.28 C 721.94 458.88, 722.16 458.72, 722.92 458.23 C 723.68 457.74, 724.30 457.41, 725.70 456.83 C 727.09 456.25, 728.04 455.88, 729.90 455.34 C 731.76 454.80, 732.91 454.52, 735.00 454.12 C 737.09 453.73, 738.32 453.54, 740.35 453.37 C 742.38 453.19, 743.40 453.16, 745.16 453.25 C 746.91 453.34, 747.76 453.63, 749.14 453.82 C 750.52 454.02, 751.05 454.16, 752.06 454.24 C 753.06 454.33, 753.54 454.59, 754.18 454.25 C 754.81 453.92, 755.31 453.35, 755.24 452.57"
            fill="none" />
        <path
            d="M 893.96,433.79 C 894.41 433.04, 894.37 432.11, 894.21 430.72 C 894.04 429.33, 893.82 428.43, 893.13 426.86 C 892.45 425.28, 891.86 424.28, 890.78 422.84 C 889.70 421.40, 889.04 420.82, 887.72 419.66 C 886.40 418.50, 885.70 417.93, 884.18 417.03 C 882.66 416.14, 881.82 415.73, 880.14 415.17 C 878.45 414.61, 877.55 414.39, 875.76 414.24 C 873.96 414.09, 872.96 414.09, 871.14 414.42 C 869.32 414.76, 868.36 415.04, 866.65 415.91 C 864.95 416.78, 864.10 417.36, 862.62 418.77 C 861.13 420.18, 860.40 421.04, 859.23 422.98 C 858.05 424.92, 857.54 426.05, 856.74 428.46 C 855.93 430.86, 855.61 432.21, 855.20 435.01 C 854.78 437.81, 854.71 439.33, 854.65 442.45 C 854.58 445.57, 854.66 447.24, 854.88 450.61 C 855.09 453.97, 855.28 455.74, 855.72 459.29 C 856.17 462.83, 856.46 464.66, 857.09 468.32 C 857.72 471.97, 858.10 473.87, 858.87 477.56 C 859.65 481.26, 860.08 483.15, 860.95 486.79 C 861.83 490.43, 862.35 492.27, 863.24 495.76 C 864.13 499.24, 864.58 500.99, 865.39 504.20 C 866.21 507.41, 866.58 508.99, 867.31 511.80 C 868.04 514.60, 868.34 515.93, 869.04 518.20 C 869.73 520.47, 870.12 521.55, 870.80 523.13 C 871.49 524.71, 871.83 525.58, 872.46 526.11 C 873.10 526.64, 873.62 526.54, 873.98 525.78 C 874.34 525.02, 874.37 524.04, 874.25 522.29 C 874.12 520.55, 873.89 519.38, 873.36 517.04 C 872.82 514.71, 872.40 513.39, 871.58 510.61 C 870.75 507.83, 870.18 506.30, 869.24 503.14 C 868.30 499.97, 867.82 498.24, 866.87 494.80 C 865.92 491.35, 865.39 489.52, 864.51 485.93 C 863.62 482.33, 863.20 480.47, 862.46 476.82 C 861.72 473.18, 861.37 471.30, 860.81 467.71 C 860.25 464.11, 860.00 462.31, 859.66 458.85 C 859.33 455.39, 859.21 453.66, 859.14 450.42 C 859.08 447.19, 859.13 445.59, 859.34 442.66 C 859.55 439.74, 859.77 438.34, 860.20 435.81 C 860.63 433.27, 860.85 432.07, 861.50 430.00 C 862.15 427.93, 862.55 427.02, 863.43 425.45 C 864.32 423.88, 864.85 423.23, 865.92 422.15 C 866.98 421.07, 867.56 420.67, 868.77 420.05 C 869.97 419.43, 870.64 419.27, 871.96 419.05 C 873.27 418.84, 874.00 418.83, 875.34 418.96 C 876.68 419.09, 877.35 419.27, 878.64 419.70 C 879.94 420.12, 880.64 420.41, 881.83 421.08 C 883.01 421.75, 883.63 422.13, 884.56 423.06 C 885.50 423.99, 885.77 424.51, 886.49 425.74 C 887.21 426.96, 887.48 427.88, 888.16 429.20 C 888.85 430.53, 889.15 431.29, 889.91 432.35 C 890.67 433.40, 891.14 434.19, 891.95 434.48 C 892.76 434.77, 893.51 434.54, 893.96 433.79"
            fill="none" />
        <path
            d="M 841.35,478.99 C 841.95 479.32, 842.29 479.15, 843.41 479.06 C 844.54 478.98, 845.19 478.90, 846.97 478.56 C 848.75 478.23, 849.85 477.94, 852.32 477.40 C 854.79 476.87, 856.31 476.49, 859.33 475.90 C 862.35 475.31, 864.06 474.99, 867.42 474.45 C 870.78 473.90, 872.64 473.66, 876.15 473.19 C 879.66 472.72, 881.51 472.49, 884.97 472.11 C 888.42 471.74, 890.21 471.59, 893.42 471.30 C 896.62 471.01, 898.21 470.99, 900.99 470.67 C 903.77 470.36, 905.21 470.13, 907.33 469.72 C 909.45 469.30, 910.30 469.07, 911.61 468.59 C 912.92 468.10, 913.49 467.81, 913.90 467.29 C 914.32 466.78, 914.23 466.36, 913.69 466.00 C 913.15 465.64, 912.58 465.62, 911.20 465.50 C 909.82 465.37, 908.95 465.25, 906.79 465.36 C 904.64 465.47, 903.19 465.68, 900.42 466.05 C 897.66 466.41, 896.14 466.75, 892.96 467.18 C 889.77 467.60, 887.98 467.76, 884.52 468.17 C 881.06 468.58, 879.19 468.82, 875.66 469.22 C 872.12 469.63, 870.26 469.84, 866.85 470.20 C 863.44 470.56, 861.74 470.71, 858.61 471.03 C 855.49 471.35, 853.85 471.33, 851.23 471.79 C 848.60 472.25, 847.37 472.63, 845.49 473.33 C 843.61 474.03, 842.84 474.48, 841.82 475.30 C 840.81 476.12, 840.51 476.67, 840.42 477.41 C 840.32 478.15, 840.75 478.66, 841.35 478.99"
            fill="none" />
        <path
            d="M 935.69,462.23 C 935.67 461.45, 935.30 460.82, 934.43 460.05 C 933.56 459.28, 932.86 458.84, 931.36 458.39 C 929.87 457.95, 928.83 457.77, 926.96 457.80 C 925.09 457.84, 924.05 458.06, 922.01 458.56 C 919.97 459.05, 918.87 459.38, 916.75 460.26 C 914.63 461.14, 913.44 461.68, 911.40 462.96 C 909.36 464.25, 908.30 465.04, 906.53 466.68 C 904.77 468.33, 903.88 469.26, 902.58 471.19 C 901.28 473.13, 900.68 474.23, 900.04 476.36 C 899.39 478.49, 899.20 479.68, 899.36 481.85 C 899.52 484.01, 899.82 485.19, 900.84 487.18 C 901.87 489.16, 902.66 490.17, 904.50 491.77 C 906.34 493.38, 907.54 494.13, 910.05 495.21 C 912.56 496.29, 914.08 496.70, 917.04 497.16 C 920.00 497.61, 921.70 497.60, 924.84 497.50 C 927.98 497.39, 929.65 497.25, 932.74 496.64 C 935.84 496.03, 937.44 495.56, 940.31 494.46 C 943.17 493.36, 944.66 492.66, 947.06 491.15 C 949.47 489.63, 950.57 488.72, 952.32 486.87 C 954.08 485.02, 954.83 483.97, 955.84 481.89 C 956.86 479.81, 957.21 478.64, 957.40 476.49 C 957.58 474.33, 957.38 473.16, 956.76 471.12 C 956.14 469.07, 955.59 468.03, 954.30 466.27 C 953.00 464.51, 952.06 463.66, 950.30 462.33 C 948.55 461.00, 947.44 460.45, 945.51 459.63 C 943.59 458.81, 942.45 458.52, 940.68 458.22 C 938.91 457.92, 937.95 457.96, 936.65 458.14 C 935.36 458.33, 934.69 458.64, 934.19 459.15 C 933.69 459.66, 933.74 460.16, 934.16 460.69 C 934.57 461.21, 935.18 461.34, 936.25 461.79 C 937.33 462.23, 938.09 462.44, 939.55 462.92 C 941.01 463.40, 941.99 463.50, 943.56 464.18 C 945.13 464.85, 945.98 465.30, 947.38 466.30 C 948.78 467.30, 949.52 467.93, 950.55 469.17 C 951.59 470.42, 952.04 471.12, 952.56 472.51 C 953.08 473.91, 953.27 474.66, 953.16 476.15 C 953.06 477.64, 952.83 478.44, 952.02 479.96 C 951.22 481.49, 950.64 482.32, 949.16 483.76 C 947.68 485.20, 946.71 485.90, 944.61 487.16 C 942.50 488.43, 941.17 489.11, 938.63 490.10 C 936.08 491.08, 934.64 491.58, 931.87 492.10 C 929.10 492.63, 927.56 492.71, 924.76 492.71 C 921.95 492.70, 920.42 492.50, 917.85 492.08 C 915.29 491.65, 914.01 491.37, 911.94 490.58 C 909.87 489.79, 908.96 489.23, 907.52 488.12 C 906.08 487.02, 905.52 486.37, 904.76 485.06 C 904.00 483.74, 903.81 483.01, 903.72 481.55 C 903.63 480.09, 903.78 479.27, 904.32 477.74 C 904.86 476.21, 905.33 475.38, 906.43 473.90 C 907.53 472.41, 908.29 471.64, 909.82 470.32 C 911.34 469.00, 912.27 468.36, 914.05 467.30 C 915.83 466.24, 916.88 465.79, 918.71 465.05 C 920.54 464.31, 921.54 464.00, 923.20 463.61 C 924.87 463.23, 925.66 463.15, 927.04 463.13 C 928.43 463.10, 929.05 463.34, 930.14 463.50 C 931.24 463.67, 931.63 463.87, 932.51 463.96 C 933.40 464.05, 933.93 464.30, 934.56 463.95 C 935.20 463.61, 935.72 463.01, 935.69 462.23"
            fill="none" />
        <path
            d="M 971.76,467.45 C 971.14 467.85, 970.93 468.37, 970.63 469.39 C 970.32 470.42, 970.24 471.11, 970.24 472.58 C 970.25 474.04, 970.41 475.01, 970.65 476.70 C 970.89 478.39, 971.16 479.30, 971.45 481.04 C 971.74 482.79, 971.80 483.78, 972.09 485.42 C 972.38 487.06, 972.42 488.09, 972.91 489.26 C 973.41 490.43, 973.86 490.96, 974.57 491.28 C 975.28 491.60, 975.93 491.49, 976.48 490.87 C 977.03 490.25, 977.35 489.50, 977.32 488.16 C 977.29 486.82, 976.96 485.84, 976.34 484.16 C 975.73 482.47, 975.05 481.52, 974.25 479.73 C 973.45 477.94, 973.00 476.96, 972.35 475.21 C 971.69 473.46, 971.36 472.59, 970.96 470.98 C 970.55 469.36, 970.39 468.57, 970.31 467.15 C 970.23 465.72, 970.22 465.07, 970.53 463.85 C 970.84 462.63, 971.08 462.06, 971.86 461.04 C 972.64 460.02, 973.10 459.57, 974.43 458.75 C 975.75 457.94, 976.56 457.53, 978.48 456.96 C 980.40 456.39, 981.56 456.20, 984.02 455.89 C 986.47 455.59, 988.14 455.66, 990.75 455.44 C 993.36 455.22, 994.91 455.15, 997.08 454.81 C 999.24 454.48, 1000.65 454.33, 1001.56 453.76 C 1002.48 453.20, 1002.53 452.64, 1001.65 451.98 C 1000.77 451.32, 999.38 450.88, 997.15 450.47 C 994.92 450.06, 993.30 449.92, 990.51 449.93 C 987.73 449.95, 985.97 450.10, 983.24 450.55 C 980.50 451.01, 979.15 451.34, 976.86 452.20 C 974.57 453.07, 973.51 453.61, 971.79 454.85 C 970.07 456.10, 969.35 456.86, 968.25 458.44 C 967.16 460.01, 966.78 460.96, 966.30 462.73 C 965.82 464.50, 965.83 465.44, 965.84 467.29 C 965.86 469.13, 966.04 470.07, 966.38 471.96 C 966.73 473.85, 967.05 474.80, 967.56 476.73 C 968.08 478.67, 968.42 479.69, 968.96 481.63 C 969.50 483.57, 969.62 484.74, 970.26 486.42 C 970.90 488.11, 971.31 488.99, 972.16 490.05 C 973.01 491.11, 973.61 491.52, 974.53 491.74 C 975.46 491.95, 976.14 491.78, 976.78 491.12 C 977.43 490.46, 977.67 489.75, 977.75 488.45 C 977.83 487.15, 977.40 486.26, 977.19 484.63 C 976.98 483.01, 976.87 482.07, 976.69 480.34 C 976.51 478.61, 976.47 477.66, 976.29 476.00 C 976.11 474.34, 976.07 473.41, 975.80 472.04 C 975.53 470.67, 975.36 470.07, 974.94 469.14 C 974.52 468.22, 974.35 467.74, 973.72 467.40 C 973.08 467.06, 972.38 467.05, 971.76 467.45"
            fill="none" />
        <path
            d="M 1141.67,430.68 C 1141.75 429.84, 1141.45 429.01, 1140.62 427.94 C 1139.79 426.87, 1139.07 426.24, 1137.50 425.34 C 1135.94 424.43, 1134.87 423.93, 1132.79 423.42 C 1130.71 422.90, 1129.53 422.85, 1127.10 422.76 C 1124.68 422.67, 1123.35 422.71, 1120.68 422.96 C 1118.01 423.20, 1116.53 423.41, 1113.74 423.98 C 1110.95 424.54, 1109.43 424.93, 1106.73 425.79 C 1104.02 426.66, 1102.62 427.18, 1100.20 428.29 C 1097.78 429.40, 1096.56 430.00, 1094.63 431.36 C 1092.70 432.71, 1091.77 433.43, 1090.55 435.06 C 1089.33 436.69, 1088.85 437.63, 1088.54 439.49 C 1088.23 441.35, 1088.30 442.44, 1088.99 444.37 C 1089.68 446.30, 1090.32 447.32, 1092.00 449.15 C 1093.68 450.98, 1094.80 451.88, 1097.38 453.51 C 1099.96 455.15, 1101.64 455.78, 1104.90 457.32 C 1108.17 458.86, 1110.05 459.61, 1113.69 461.23 C 1117.33 462.85, 1119.34 463.66, 1123.10 465.43 C 1126.86 467.19, 1128.88 468.12, 1132.49 470.04 C 1136.10 471.96, 1137.96 472.98, 1141.15 475.03 C 1144.35 477.09, 1145.91 478.19, 1148.47 480.31 C 1151.02 482.44, 1152.11 483.61, 1153.93 485.67 C 1155.75 487.72, 1156.51 488.71, 1157.55 490.57 C 1158.60 492.42, 1158.91 493.32, 1159.15 494.95 C 1159.39 496.58, 1159.30 497.32, 1158.74 498.71 C 1158.18 500.10, 1157.69 500.70, 1156.34 501.90 C 1154.99 503.10, 1154.08 503.63, 1151.98 504.71 C 1149.88 505.79, 1148.64 506.40, 1145.82 507.29 C 1143.01 508.18, 1141.34 508.62, 1137.91 509.16 C 1134.49 509.69, 1132.54 509.84, 1128.70 509.94 C 1124.87 510.05, 1122.75 509.98, 1118.74 509.67 C 1114.73 509.36, 1112.58 509.08, 1108.64 508.38 C 1104.71 507.67, 1102.67 507.22, 1099.08 506.14 C 1095.50 505.06, 1093.70 504.39, 1090.72 502.99 C 1087.74 501.58, 1086.37 500.72, 1084.17 499.13 C 1081.96 497.53, 1081.02 496.75, 1079.69 495.02 C 1078.35 493.29, 1078.14 492.23, 1077.48 490.48 C 1076.82 488.72, 1076.81 487.73, 1076.39 486.26 C 1075.97 484.80, 1075.93 483.77, 1075.39 483.14 C 1074.85 482.52, 1074.22 482.43, 1073.67 483.14 C 1073.13 483.84, 1072.71 484.92, 1072.65 486.68 C 1072.59 488.44, 1072.64 489.74, 1073.38 491.93 C 1074.11 494.12, 1074.67 495.50, 1076.35 497.62 C 1078.02 499.75, 1079.18 500.81, 1081.75 502.57 C 1084.31 504.33, 1085.91 505.05, 1089.18 506.43 C 1092.45 507.82, 1094.33 508.45, 1098.10 509.50 C 1101.88 510.56, 1103.98 511.00, 1108.05 511.72 C 1112.12 512.44, 1114.31 512.73, 1118.45 513.11 C 1122.59 513.48, 1124.75 513.59, 1128.74 513.61 C 1132.74 513.62, 1134.75 513.55, 1138.42 513.18 C 1142.09 512.81, 1143.93 512.58, 1147.10 511.76 C 1150.27 510.95, 1151.81 510.43, 1154.29 509.10 C 1156.78 507.76, 1157.87 506.88, 1159.52 505.08 C 1161.17 503.28, 1161.83 502.23, 1162.55 500.10 C 1163.27 497.97, 1163.37 496.74, 1163.10 494.44 C 1162.84 492.14, 1162.43 490.92, 1161.22 488.59 C 1160.02 486.27, 1159.15 485.06, 1157.07 482.81 C 1154.98 480.57, 1153.62 479.52, 1150.80 477.37 C 1147.99 475.23, 1146.34 474.16, 1143.00 472.10 C 1139.65 470.04, 1137.75 469.03, 1134.07 467.08 C 1130.39 465.12, 1128.34 464.17, 1124.58 462.33 C 1120.82 460.49, 1118.81 459.63, 1115.27 457.88 C 1111.72 456.12, 1109.88 455.27, 1106.87 453.55 C 1103.85 451.83, 1102.47 450.83, 1100.19 449.26 C 1097.91 447.68, 1096.94 446.99, 1095.47 445.67 C 1093.99 444.36, 1093.47 443.79, 1092.82 442.68 C 1092.16 441.57, 1092.04 441.11, 1092.21 440.10 C 1092.37 439.10, 1092.67 438.65, 1093.65 437.66 C 1094.63 436.67, 1095.40 436.15, 1097.10 435.16 C 1098.79 434.17, 1099.91 433.62, 1102.13 432.70 C 1104.35 431.79, 1105.67 431.32, 1108.19 430.59 C 1110.71 429.85, 1112.14 429.53, 1114.73 429.04 C 1117.33 428.54, 1118.72 428.35, 1121.16 428.12 C 1123.59 427.89, 1124.84 427.82, 1126.91 427.89 C 1128.98 427.97, 1129.87 428.08, 1131.50 428.50 C 1133.13 428.93, 1133.79 429.45, 1135.06 430.02 C 1136.34 430.60, 1136.84 430.96, 1137.87 431.38 C 1138.89 431.79, 1139.43 432.25, 1140.19 432.11 C 1140.95 431.97, 1141.58 431.51, 1141.67 430.68"
            fill="none" />
        <path
            d="M 1172.91,432.18 C 1172.28 432.60, 1172.07 433.13, 1171.70 434.32 C 1171.32 435.50, 1171.13 436.28, 1171.01 438.11 C 1170.89 439.95, 1170.99 441.18, 1171.11 443.51 C 1171.22 445.84, 1171.37 447.10, 1171.58 449.77 C 1171.80 452.44, 1171.91 453.91, 1172.17 456.87 C 1172.44 459.82, 1172.60 461.41, 1172.91 464.54 C 1173.21 467.66, 1173.36 469.32, 1173.69 472.48 C 1174.01 475.63, 1174.20 477.23, 1174.55 480.31 C 1174.90 483.38, 1175.06 484.97, 1175.45 487.86 C 1175.84 490.74, 1176.08 492.18, 1176.50 494.73 C 1176.93 497.29, 1177.08 498.56, 1177.58 500.63 C 1178.08 502.71, 1178.44 503.75, 1179.01 505.12 C 1179.59 506.49, 1179.89 507.06, 1180.45 507.48 C 1181.02 507.91, 1181.45 507.84, 1181.84 507.24 C 1182.23 506.64, 1182.35 505.98, 1182.39 504.49 C 1182.44 503.01, 1182.34 501.92, 1182.08 499.82 C 1181.82 497.71, 1181.51 496.50, 1181.10 493.98 C 1180.69 491.45, 1180.45 490.04, 1180.02 487.20 C 1179.58 484.36, 1179.32 482.80, 1178.92 479.77 C 1178.53 476.74, 1178.34 475.16, 1178.05 472.04 C 1177.75 468.92, 1177.63 467.27, 1177.43 464.17 C 1177.23 461.07, 1177.15 459.49, 1177.03 456.56 C 1176.92 453.62, 1176.92 452.15, 1176.86 449.50 C 1176.80 446.85, 1176.80 445.58, 1176.73 443.29 C 1176.66 441.00, 1176.69 439.82, 1176.52 438.04 C 1176.36 436.26, 1176.23 435.54, 1175.89 434.38 C 1175.55 433.23, 1175.41 432.69, 1174.82 432.25 C 1174.22 431.81, 1173.53 431.77, 1172.91 432.18"
            fill="none" />
        <path
            d="M 1157.46,476.13 C 1158.15 476.44, 1158.67 476.17, 1159.96 476.02 C 1161.26 475.86, 1162.02 475.71, 1163.92 475.35 C 1165.82 475.00, 1167.04 474.67, 1169.47 474.25 C 1171.91 473.83, 1173.37 473.61, 1176.09 473.24 C 1178.81 472.87, 1180.33 472.70, 1183.08 472.42 C 1185.83 472.13, 1187.25 472.00, 1189.86 471.83 C 1192.46 471.66, 1193.77 471.62, 1196.09 471.56 C 1198.40 471.49, 1199.54 471.49, 1201.43 471.51 C 1203.33 471.53, 1204.20 471.56, 1205.55 471.64 C 1206.90 471.72, 1207.46 471.68, 1208.17 471.90 C 1208.87 472.13, 1208.92 472.18, 1209.07 472.77 C 1209.22 473.36, 1209.02 473.77, 1208.91 474.85 C 1208.80 475.93, 1208.68 476.64, 1208.52 478.17 C 1208.36 479.69, 1208.25 480.67, 1208.13 482.48 C 1208.02 484.30, 1207.95 485.38, 1207.94 487.24 C 1207.94 489.10, 1207.98 490.11, 1208.10 491.79 C 1208.22 493.47, 1208.25 494.35, 1208.55 495.64 C 1208.84 496.94, 1208.95 497.56, 1209.57 498.27 C 1210.19 498.98, 1210.81 499.30, 1211.65 499.20 C 1212.49 499.11, 1213.20 498.69, 1213.77 497.81 C 1214.34 496.94, 1214.47 496.21, 1214.49 494.82 C 1214.52 493.44, 1214.25 492.55, 1213.89 490.88 C 1213.54 489.20, 1213.18 488.22, 1212.72 486.44 C 1212.26 484.65, 1211.98 483.71, 1211.59 481.95 C 1211.20 480.19, 1210.99 479.30, 1210.77 477.63 C 1210.54 475.96, 1210.48 475.12, 1210.48 473.60 C 1210.48 472.09, 1210.50 471.34, 1210.78 470.05 C 1211.06 468.75, 1211.23 468.19, 1211.88 467.15 C 1212.52 466.11, 1212.94 465.67, 1213.99 464.85 C 1215.04 464.03, 1215.66 463.65, 1217.12 463.06 C 1218.58 462.46, 1219.43 462.22, 1221.29 461.88 C 1223.14 461.53, 1224.24 461.42, 1226.41 461.33 C 1228.59 461.24, 1229.81 461.27, 1232.16 461.45 C 1234.51 461.62, 1235.78 461.82, 1238.16 462.21 C 1240.54 462.61, 1241.78 462.85, 1244.08 463.43 C 1246.37 464.01, 1247.52 464.39, 1249.64 465.11 C 1251.77 465.83, 1252.90 466.31, 1254.70 467.03 C 1256.51 467.75, 1257.32 468.24, 1258.67 468.70 C 1260.03 469.17, 1260.55 469.23, 1261.46 469.34 C 1262.37 469.45, 1262.77 469.49, 1263.23 469.24 C 1263.68 468.99, 1263.83 468.58, 1263.73 468.09 C 1263.62 467.59, 1263.32 467.40, 1262.69 466.77 C 1262.05 466.14, 1261.77 465.76, 1260.56 464.94 C 1259.34 464.12, 1258.48 463.54, 1256.61 462.66 C 1254.74 461.77, 1253.48 461.30, 1251.21 460.52 C 1248.94 459.74, 1247.71 459.39, 1245.27 458.75 C 1242.84 458.12, 1241.56 457.82, 1239.02 457.35 C 1236.48 456.88, 1235.14 456.62, 1232.58 456.40 C 1230.01 456.17, 1228.65 456.11, 1226.19 456.22 C 1223.73 456.33, 1222.49 456.47, 1220.28 456.96 C 1218.08 457.44, 1217.01 457.76, 1215.16 458.64 C 1213.31 459.51, 1212.45 460.08, 1211.04 461.33 C 1209.63 462.57, 1209.03 463.32, 1208.11 464.85 C 1207.18 466.38, 1206.87 467.25, 1206.42 468.98 C 1205.96 470.71, 1205.90 471.65, 1205.82 473.49 C 1205.73 475.32, 1205.83 476.28, 1206.00 478.16 C 1206.17 480.03, 1206.38 480.99, 1206.66 482.86 C 1206.94 484.74, 1207.13 485.70, 1207.41 487.52 C 1207.68 489.34, 1207.78 490.35, 1208.04 491.96 C 1208.29 493.58, 1208.33 494.40, 1208.68 495.58 C 1209.04 496.75, 1209.25 497.24, 1209.83 497.83 C 1210.41 498.43, 1210.97 498.61, 1211.57 498.55 C 1212.17 498.49, 1212.52 498.19, 1212.82 497.52 C 1213.11 496.84, 1213.02 496.35, 1213.06 495.18 C 1213.10 494.00, 1213.00 493.18, 1213.01 491.63 C 1213.02 490.07, 1213.01 489.14, 1213.11 487.40 C 1213.22 485.65, 1213.38 484.68, 1213.54 482.89 C 1213.69 481.10, 1213.89 480.12, 1213.90 478.43 C 1213.90 476.74, 1213.89 475.91, 1213.55 474.44 C 1213.22 472.97, 1213.00 472.22, 1212.23 471.08 C 1211.46 469.94, 1210.92 469.44, 1209.70 468.73 C 1208.47 468.03, 1207.74 467.90, 1206.12 467.56 C 1204.50 467.23, 1203.62 467.19, 1201.61 467.06 C 1199.59 466.92, 1198.43 466.90, 1196.03 466.89 C 1193.63 466.88, 1192.28 466.91, 1189.61 467.01 C 1186.93 467.12, 1185.49 467.22, 1182.67 467.40 C 1179.85 467.58, 1178.33 467.67, 1175.51 467.92 C 1172.68 468.16, 1171.13 468.20, 1168.53 468.62 C 1165.93 469.05, 1164.54 469.33, 1162.50 470.03 C 1160.46 470.72, 1159.53 471.22, 1158.33 472.11 C 1157.13 473.00, 1156.68 473.66, 1156.51 474.46 C 1156.33 475.27, 1156.76 475.82, 1157.46 476.13"
            fill="none" />
        <path
            d="M 1266.07,464.09 C 1265.42 464.37, 1265.20 464.78, 1264.81 465.63 C 1264.42 466.48, 1264.24 467.03, 1264.10 468.35 C 1263.96 469.66, 1264.01 470.56, 1264.12 472.20 C 1264.22 473.85, 1264.41 474.76, 1264.65 476.57 C 1264.88 478.39, 1265.01 479.36, 1265.28 481.27 C 1265.56 483.19, 1265.69 484.21, 1266.04 486.15 C 1266.38 488.09, 1266.61 489.12, 1267.01 490.98 C 1267.41 492.84, 1267.58 493.80, 1268.05 495.43 C 1268.51 497.06, 1268.84 497.98, 1269.34 499.13 C 1269.84 500.27, 1270.05 500.62, 1270.53 501.17 C 1271.02 501.72, 1271.38 501.75, 1271.75 501.88 C 1272.12 502.00, 1272.22 501.85, 1272.40 501.81 C 1272.57 501.76, 1272.49 501.74, 1272.63 501.65 C 1272.78 501.56, 1272.92 501.65, 1273.13 501.35 C 1273.35 501.06, 1273.61 500.88, 1273.71 500.19 C 1273.80 499.49, 1273.79 499.08, 1273.60 497.88 C 1273.42 496.69, 1273.14 495.79, 1272.78 494.21 C 1272.41 492.63, 1272.16 491.75, 1271.80 489.97 C 1271.43 488.20, 1271.26 487.19, 1270.96 485.32 C 1270.66 483.46, 1270.52 482.48, 1270.31 480.63 C 1270.11 478.78, 1270.04 477.81, 1269.93 476.06 C 1269.82 474.31, 1269.84 473.43, 1269.77 471.88 C 1269.70 470.33, 1269.72 469.53, 1269.57 468.32 C 1269.42 467.11, 1269.32 466.65, 1269.01 465.84 C 1268.70 465.03, 1268.60 464.60, 1268.02 464.25 C 1267.43 463.90, 1266.71 463.81, 1266.07 464.09"
            fill="none" />
        <path
            d="M 1263.43,436.78 C 1264.08 437.08, 1264.56 437.16, 1264.74 436.93 C 1264.93 436.71, 1264.76 436.26, 1264.35 435.67 C 1263.94 435.08, 1263.33 434.33, 1262.68 433.98 C 1262.03 433.63, 1261.35 433.60, 1261.10 433.89 C 1260.86 434.18, 1260.99 434.85, 1261.46 435.43 C 1261.92 436.01, 1262.77 436.48, 1263.43 436.78"
            fill="none" />
        <path
            d="M 1294.29,465.68 C 1293.77 466.16, 1293.71 466.63, 1293.56 467.66 C 1293.40 468.68, 1293.36 469.33, 1293.51 470.80 C 1293.65 472.27, 1293.94 473.23, 1294.27 475.01 C 1294.60 476.80, 1294.84 477.72, 1295.14 479.71 C 1295.45 481.69, 1295.57 482.82, 1295.81 484.92 C 1296.06 487.03, 1296.14 488.16, 1296.36 490.21 C 1296.57 492.26, 1296.68 493.37, 1296.87 495.19 C 1297.06 497.02, 1296.98 497.97, 1297.32 499.34 C 1297.67 500.70, 1297.94 501.45, 1298.60 502.02 C 1299.26 502.59, 1299.91 502.54, 1300.62 502.19 C 1301.33 501.83, 1301.76 501.35, 1302.16 500.25 C 1302.56 499.15, 1302.65 498.33, 1302.62 496.68 C 1302.59 495.04, 1302.20 493.94, 1302.00 492.02 C 1301.81 490.11, 1301.67 489.07, 1301.64 487.11 C 1301.61 485.14, 1301.62 484.09, 1301.87 482.20 C 1302.13 480.31, 1302.34 479.42, 1302.92 477.64 C 1303.50 475.87, 1303.84 474.93, 1304.77 473.31 C 1305.71 471.70, 1306.28 470.94, 1307.58 469.55 C 1308.88 468.17, 1309.64 467.50, 1311.25 466.40 C 1312.86 465.30, 1313.75 464.76, 1315.63 464.05 C 1317.50 463.34, 1318.58 463.11, 1320.63 462.85 C 1322.67 462.60, 1323.78 462.54, 1325.83 462.77 C 1327.88 463.01, 1328.96 463.26, 1330.88 464.03 C 1332.80 464.80, 1333.75 465.32, 1335.44 466.60 C 1337.14 467.89, 1337.94 468.71, 1339.35 470.44 C 1340.75 472.18, 1341.38 473.18, 1342.48 475.27 C 1343.58 477.35, 1344.01 478.55, 1344.82 480.87 C 1345.64 483.20, 1345.96 484.48, 1346.58 486.88 C 1347.20 489.28, 1347.40 490.55, 1347.93 492.88 C 1348.45 495.20, 1348.59 496.46, 1349.20 498.50 C 1349.81 500.54, 1350.27 501.65, 1350.98 503.07 C 1351.68 504.50, 1352.06 504.89, 1352.71 505.63 C 1353.36 506.36, 1353.70 506.64, 1354.22 506.75 C 1354.75 506.86, 1355.09 506.63, 1355.31 506.18 C 1355.53 505.73, 1355.40 505.41, 1355.34 504.50 C 1355.29 503.59, 1355.36 503.09, 1355.05 501.64 C 1354.73 500.19, 1354.27 499.19, 1353.78 497.24 C 1353.30 495.28, 1353.10 494.16, 1352.60 491.85 C 1352.11 489.54, 1351.94 488.20, 1351.31 485.68 C 1350.67 483.16, 1350.35 481.77, 1349.44 479.23 C 1348.53 476.70, 1348.03 475.35, 1346.75 472.99 C 1345.47 470.62, 1344.73 469.44, 1343.04 467.40 C 1341.34 465.37, 1340.36 464.37, 1338.28 462.82 C 1336.20 461.27, 1335.01 460.61, 1332.64 459.65 C 1330.26 458.69, 1328.93 458.35, 1326.41 458.03 C 1323.89 457.71, 1322.54 457.76, 1320.04 458.06 C 1317.54 458.36, 1316.21 458.67, 1313.91 459.55 C 1311.61 460.43, 1310.51 461.11, 1308.55 462.46 C 1306.59 463.81, 1305.67 464.61, 1304.10 466.31 C 1302.52 468.01, 1301.80 468.99, 1300.67 470.96 C 1299.54 472.92, 1299.16 474.06, 1298.45 476.15 C 1297.74 478.25, 1297.52 479.28, 1297.12 481.43 C 1296.73 483.59, 1296.64 484.75, 1296.46 486.92 C 1296.29 489.08, 1296.27 490.20, 1296.23 492.25 C 1296.19 494.31, 1296.04 495.49, 1296.27 497.18 C 1296.50 498.87, 1296.79 499.67, 1297.39 500.70 C 1297.99 501.73, 1298.51 502.11, 1299.28 502.33 C 1300.05 502.54, 1300.71 502.46, 1301.25 501.78 C 1301.79 501.09, 1301.91 500.30, 1301.99 498.90 C 1302.08 497.49, 1301.81 496.59, 1301.68 494.76 C 1301.54 492.94, 1301.49 491.84, 1301.33 489.77 C 1301.17 487.70, 1301.08 486.55, 1300.89 484.41 C 1300.70 482.26, 1300.59 481.10, 1300.38 479.04 C 1300.17 476.97, 1300.13 475.95, 1299.85 474.09 C 1299.57 472.22, 1299.42 471.19, 1298.99 469.73 C 1298.55 468.26, 1298.26 467.67, 1297.69 466.78 C 1297.12 465.88, 1296.84 465.47, 1296.16 465.25 C 1295.48 465.03, 1294.81 465.19, 1294.29 465.68"
            fill="none" />
        <path
            d="M 1398.42,477.98 C 1398.87 477.26, 1398.92 476.36, 1398.66 475.09 C 1398.40 473.82, 1398.06 472.97, 1397.11 471.64 C 1396.16 470.31, 1395.41 469.49, 1393.93 468.43 C 1392.45 467.38, 1391.54 467.02, 1389.71 466.37 C 1387.88 465.72, 1386.87 465.45, 1384.76 465.19 C 1382.66 464.93, 1381.46 464.87, 1379.18 465.06 C 1376.91 465.26, 1375.67 465.48, 1373.38 466.15 C 1371.09 466.83, 1369.85 467.30, 1367.72 468.44 C 1365.59 469.58, 1364.49 470.30, 1362.72 471.86 C 1360.95 473.41, 1360.10 474.35, 1358.85 476.23 C 1357.61 478.11, 1357.05 479.19, 1356.50 481.25 C 1355.94 483.31, 1355.82 484.48, 1356.07 486.53 C 1356.32 488.58, 1356.68 489.70, 1357.74 491.52 C 1358.79 493.33, 1359.61 494.22, 1361.34 495.59 C 1363.08 496.97, 1364.19 497.57, 1366.42 498.41 C 1368.65 499.24, 1369.99 499.52, 1372.48 499.78 C 1374.98 500.04, 1376.39 499.98, 1378.91 499.72 C 1381.44 499.45, 1382.72 499.16, 1385.11 498.47 C 1387.49 497.78, 1388.74 497.28, 1390.83 496.25 C 1392.92 495.23, 1393.92 494.64, 1395.56 493.35 C 1397.21 492.05, 1397.96 491.26, 1399.06 489.78 C 1400.16 488.29, 1400.54 487.47, 1401.07 485.92 C 1401.59 484.37, 1401.81 483.47, 1401.68 482.04 C 1401.55 480.61, 1401.25 479.59, 1400.42 478.78 C 1399.59 477.97, 1398.58 477.75, 1397.51 477.98 C 1396.44 478.20, 1395.72 478.70, 1395.08 479.91 C 1394.44 481.13, 1394.27 482.12, 1394.30 484.05 C 1394.33 485.98, 1394.67 487.18, 1395.22 489.58 C 1395.78 491.97, 1396.19 493.33, 1397.08 496.02 C 1397.97 498.72, 1398.60 500.15, 1399.66 503.05 C 1400.72 505.96, 1401.29 507.48, 1402.40 510.56 C 1403.50 513.65, 1404.11 515.30, 1405.18 518.49 C 1406.24 521.68, 1406.84 523.34, 1407.71 526.50 C 1408.59 529.67, 1409.01 531.27, 1409.56 534.30 C 1410.12 537.32, 1410.30 538.84, 1410.49 541.63 C 1410.68 544.42, 1410.70 545.79, 1410.51 548.26 C 1410.33 550.74, 1410.17 551.93, 1409.56 554.00 C 1408.96 556.06, 1408.55 556.98, 1407.49 558.59 C 1406.44 560.21, 1405.80 560.90, 1404.29 562.06 C 1402.77 563.23, 1401.91 563.70, 1399.91 564.41 C 1397.92 565.12, 1396.78 565.31, 1394.29 565.61 C 1391.81 565.91, 1390.41 566.02, 1387.50 565.94 C 1384.59 565.85, 1382.97 565.70, 1379.75 565.18 C 1376.53 564.66, 1374.77 564.27, 1371.41 563.34 C 1368.04 562.42, 1366.24 561.82, 1362.92 560.56 C 1359.59 559.30, 1357.87 558.59, 1354.80 557.05 C 1351.74 555.50, 1350.19 554.61, 1347.59 552.83 C 1345.00 551.04, 1343.78 549.99, 1341.82 548.10 C 1339.87 546.22, 1339.02 545.29, 1337.84 543.38 C 1336.65 541.46, 1336.25 540.48, 1335.90 538.53 C 1335.55 536.58, 1335.58 535.57, 1336.07 533.64 C 1336.56 531.71, 1337.05 530.81, 1338.33 528.87 C 1339.61 526.94, 1340.46 525.90, 1342.48 523.97 C 1344.50 522.05, 1345.69 520.99, 1348.43 519.24 C 1351.17 517.48, 1352.81 516.67, 1356.17 515.20 C 1359.52 513.73, 1361.46 512.97, 1365.22 511.88 C 1368.98 510.80, 1371.02 510.39, 1374.97 509.78 C 1378.92 509.18, 1381.36 509.11, 1384.96 508.86 C 1388.56 508.61, 1390.31 508.82, 1392.96 508.54 C 1395.61 508.26, 1397.17 508.00, 1398.22 507.47 C 1399.27 506.93, 1399.30 506.40, 1398.23 505.86 C 1397.16 505.32, 1395.59 504.91, 1392.88 504.75 C 1390.17 504.59, 1388.36 504.73, 1384.67 505.04 C 1380.97 505.35, 1378.49 505.61, 1374.41 506.30 C 1370.33 506.99, 1368.20 507.41, 1364.26 508.49 C 1360.32 509.57, 1358.31 510.27, 1354.71 511.71 C 1351.11 513.14, 1349.34 513.90, 1346.27 515.67 C 1343.19 517.44, 1341.70 518.42, 1339.32 520.56 C 1336.94 522.70, 1335.89 523.92, 1334.38 526.35 C 1332.88 528.77, 1332.33 530.09, 1331.80 532.68 C 1331.27 535.27, 1331.26 536.70, 1331.73 539.29 C 1332.20 541.87, 1332.74 543.20, 1334.16 545.60 C 1335.57 547.99, 1336.57 549.14, 1338.80 551.26 C 1341.04 553.38, 1342.49 554.34, 1345.35 556.19 C 1348.21 558.03, 1349.85 558.91, 1353.09 560.50 C 1356.33 562.09, 1358.10 562.81, 1361.55 564.14 C 1364.99 565.47, 1366.83 566.11, 1370.32 567.15 C 1373.81 568.19, 1375.60 568.66, 1378.99 569.34 C 1382.38 570.02, 1384.08 570.33, 1387.26 570.56 C 1390.44 570.79, 1392.03 570.84, 1394.90 570.49 C 1397.76 570.13, 1399.16 569.76, 1401.59 568.77 C 1404.02 567.78, 1405.14 567.09, 1407.05 565.54 C 1408.96 563.98, 1409.78 563.03, 1411.13 560.98 C 1412.47 558.93, 1413.01 557.76, 1413.79 555.29 C 1414.57 552.81, 1414.81 551.41, 1415.03 548.61 C 1415.26 545.81, 1415.18 544.31, 1414.92 541.28 C 1414.65 538.26, 1414.34 536.67, 1413.69 533.49 C 1413.04 530.32, 1412.58 528.66, 1411.66 525.40 C 1410.74 522.14, 1410.14 520.45, 1409.10 517.21 C 1408.06 513.96, 1407.47 512.31, 1406.47 509.18 C 1405.48 506.06, 1404.96 504.53, 1404.12 501.60 C 1403.28 498.67, 1402.91 497.18, 1402.26 494.53 C 1401.61 491.88, 1401.30 490.57, 1400.86 488.36 C 1400.43 486.15, 1400.40 485.06, 1400.07 483.47 C 1399.74 481.88, 1399.62 481.21, 1399.23 480.42 C 1398.83 479.64, 1398.52 479.56, 1398.09 479.55 C 1397.67 479.53, 1397.28 479.81, 1397.10 480.36 C 1396.92 480.91, 1397.17 481.44, 1397.17 482.30 C 1397.17 483.15, 1397.41 483.66, 1397.11 484.62 C 1396.80 485.59, 1396.52 486.11, 1395.67 487.13 C 1394.82 488.15, 1394.21 488.75, 1392.84 489.71 C 1391.47 490.68, 1390.62 491.14, 1388.81 491.95 C 1387.00 492.77, 1385.86 493.20, 1383.78 493.77 C 1381.71 494.33, 1380.59 494.58, 1378.43 494.78 C 1376.27 494.98, 1375.07 494.96, 1373.00 494.76 C 1370.93 494.55, 1369.85 494.33, 1368.09 493.75 C 1366.32 493.16, 1365.49 492.73, 1364.19 491.82 C 1362.88 490.90, 1362.31 490.35, 1361.55 489.19 C 1360.79 488.03, 1360.54 487.35, 1360.39 486.02 C 1360.24 484.68, 1360.32 483.93, 1360.78 482.50 C 1361.24 481.07, 1361.67 480.26, 1362.68 478.85 C 1363.68 477.45, 1364.36 476.70, 1365.82 475.49 C 1367.29 474.27, 1368.21 473.70, 1369.99 472.80 C 1371.78 471.89, 1372.84 471.49, 1374.76 470.95 C 1376.69 470.42, 1377.72 470.27, 1379.61 470.11 C 1381.49 469.96, 1382.50 470.00, 1384.20 470.17 C 1385.90 470.34, 1386.76 470.50, 1388.10 470.96 C 1389.44 471.42, 1389.94 471.72, 1390.90 472.48 C 1391.86 473.25, 1392.17 473.90, 1392.90 474.80 C 1393.63 475.71, 1393.86 476.23, 1394.55 477.01 C 1395.25 477.79, 1395.62 478.49, 1396.39 478.69 C 1397.17 478.88, 1397.96 478.71, 1398.42 477.98"
            fill="none" />
    </g>
</svg>